<svg xmlns="http://www.w3.org/2000/svg" viewBox="0 0 128 128"><g fill="none" fill-rule="evenodd"><path fill="#68BC71" d="M63.886.962c-19.217 0-42.398 4.52-61.481 14.466 0 21.483-.263 75.002 61.481 111.57 61.747-36.568 61.485-90.087 61.485-111.57C106.286 5.481 83.105.962 63.886.962"/><path fill="#67B279" d="M63.824 126.961C2.142 90.394 2.405 36.903 2.405 15.428 21.468 5.492 44.619.972 63.824.962z"/><path fill="#FFF" d="m61.644 85.058 37.179-50.11c-2.725-2.183-5.114-.642-6.43.551l-.048.004-31 32.248-11.68-14.056c-5.571-6.437-13.147-1.527-14.916-.229z"/></g></svg>